<?xml version="1.0" encoding="UTF-8"?>
<svg width="277px" height="365px" viewBox="0 0 277 365" version="1.1" xmlns="http://www.w3.org/2000/svg" xmlns:xlink="http://www.w3.org/1999/xlink">
    <!-- Generator: Sketch 50.2 (55047) - http://www.bohemiancoding.com/sketch -->
    <title>Robust</title>
    <desc>Created with Sketch.</desc>
    <defs>
        <path d="M1.54446947,0.369424779 C0.700016842,0.369424779 0.0160484211,1.05408186 0.0160484211,1.8975 C0.0160484211,2.74091814 0.700016842,3.42557522 1.54446947,3.42557522 L22.95612,3.42557522 C23.8005726,3.42557522 24.4853053,2.74091814 24.4853053,1.8975 C24.4853053,1.05408186 23.8005726,0.369424779 22.95612,0.369424779 L1.54446947,0.369424779 Z" id="path-1"></path>
        <path d="M1.56510316,0.369424779 C0.720650526,0.369424779 0.0366821053,1.05408186 0.0366821053,1.8975 C0.0366821053,2.74091814 0.720650526,3.42557522 1.56510316,3.42557522 L22.9767537,3.42557522 C23.8212063,3.42557522 24.5059389,2.74091814 24.5059389,1.8975 C24.5059389,1.05408186 23.8212063,0.369424779 22.9767537,0.369424779 L1.56510316,0.369424779 Z" id="path-3"></path>
        <path d="M1.56510316,0.369424779 C0.720650526,0.369424779 0.0366821053,1.05408186 0.0366821053,1.8975 C0.0366821053,2.74091814 0.720650526,3.42557522 1.56510316,3.42557522 L22.9767537,3.42557522 C23.8212063,3.42557522 24.5059389,2.74091814 24.5059389,1.8975 C24.5059389,1.05408186 23.8212063,0.369424779 22.9767537,0.369424779 L1.56510316,0.369424779 Z" id="path-5"></path>
        <path d="M1.54446947,0.394612832 C0.700016842,0.394612832 0.0160484211,1.07850664 0.0160484211,1.92192478 C0.0160484211,2.76534292 0.700016842,3.44923673 1.54446947,3.44923673 L35.1903663,3.44923673 C36.0355832,3.44923673 36.7203158,2.76534292 36.7203158,1.92192478 C36.7203158,1.07850664 36.0355832,0.394612832 35.1903663,0.394612832 L1.54446947,0.394612832 Z" id="path-7"></path>
        <path d="M7.88970947,0.383163717 C3.54135158,0.383163717 0.0160484211,3.11873894 0.0160484211,6.49317478 C0.0160484211,9.86761062 3.54135158,12.6024226 7.88970947,12.6024226 L116.160764,12.6024226 C120.510651,12.6024226 124.035954,9.86761062 124.035954,6.49317478 C124.035954,3.11873894 120.510651,0.383163717 116.160764,0.383163717 L7.88970947,0.383163717 Z" id="path-9"></path>
        <path d="M1.54446947,0.398429204 C0.700016842,0.398429204 0.0160484211,1.08232301 0.0160484211,1.92497788 C0.0160484211,2.76839602 0.700016842,3.45381637 1.54446947,3.45381637 L16.8393789,3.45381637 C17.6838316,3.45381637 18.3678,2.76839602 18.3678,1.92497788 C18.3678,1.08232301 17.6838316,0.398429204 16.8393789,0.398429204 L1.54446947,0.398429204 Z" id="path-11"></path>
        <path d="M1.54446947,0.398429204 C0.700016842,0.398429204 0.0160484211,1.08232301 0.0160484211,1.92497788 C0.0160484211,2.76839602 0.700016842,3.45381637 1.54446947,3.45381637 L16.8393789,3.45381637 C17.6838316,3.45381637 18.3678,2.76839602 18.3678,1.92497788 C18.3678,1.08232301 17.6838316,0.398429204 16.8393789,0.398429204 L1.54446947,0.398429204 Z" id="path-13"></path>
        <path d="M1.54446947,0.419037611 C0.700016842,0.419037611 0.0160484211,1.10216814 0.0160484211,1.94558628 C0.0160484211,2.7897677 0.700016842,3.4736615 1.54446947,3.4736615 L47.4261411,3.4736615 C48.2705937,3.4736615 48.9545621,2.7897677 48.9545621,1.94558628 C48.9545621,1.10216814 48.2705937,0.419037611 47.4261411,0.419037611 L1.54446947,0.419037611 Z" id="path-15"></path>
        <path d="M7.88970947,0.407588496 C3.54135158,0.407588496 0.0160484211,3.14316372 0.0160484211,6.51759956 C0.0160484211,9.8920354 3.54135158,12.6276106 7.88970947,12.6276106 L116.160764,12.6276106 C120.510651,12.6276106 124.035954,9.8920354 124.035954,6.51759956 C124.035954,3.14316372 120.510651,0.407588496 116.160764,0.407588496 L7.88970947,0.407588496 Z" id="path-17"></path>
        <path d="M1.54446947,0.422090708 C0.700016842,0.422090708 0.0160484211,1.10598451 0.0160484211,1.95016593 C0.0160484211,2.79358407 0.700016842,3.47747788 1.54446947,3.47747788 L26.0144905,3.47747788 C26.8597074,3.47747788 27.54444,2.79358407 27.54444,1.95016593 C27.54444,1.10598451 26.8597074,0.422090708 26.0144905,0.422090708 L1.54446947,0.422090708 Z" id="path-19"></path>
        <path d="M1.54446947,0.422090708 C0.700016842,0.422090708 0.0160484211,1.10598451 0.0160484211,1.95016593 C0.0160484211,2.79358407 0.700016842,3.47747788 1.54446947,3.47747788 L26.0144905,3.47747788 C26.8597074,3.47747788 27.54444,2.79358407 27.54444,1.95016593 C27.54444,1.10598451 26.8597074,0.422090708 26.0144905,0.422090708 L1.54446947,0.422090708 Z" id="path-21"></path>
        <path d="M1.54446947,0.443462389 C0.700016842,0.443462389 0.0160484211,1.12735619 0.0160484211,1.97077434 C0.0160484211,2.81419248 0.700016842,3.49808628 1.54446947,3.49808628 L26.0144905,3.49808628 C26.8597074,3.49808628 27.54444,2.81419248 27.54444,1.97077434 C27.54444,1.12735619 26.8597074,0.443462389 26.0144905,0.443462389 L1.54446947,0.443462389 Z" id="path-23"></path>
        <path d="M7.88970947,0.432013274 C3.54135158,0.432013274 0.0160484211,3.16682522 0.0160484211,6.54202434 C0.0160484211,9.91646018 3.54135158,12.6520354 7.88970947,12.6520354 L116.160764,12.6520354 C120.510651,12.6520354 124.035954,9.91646018 124.035954,6.54202434 C124.035954,3.16682522 120.510651,0.432013274 116.160764,0.432013274 L7.88970947,0.432013274 Z" id="path-25"></path>
        <path d="M1.54446947,0.447278761 C0.700016842,0.447278761 0.0160484211,1.13040929 0.0160484211,1.97459071 C0.0160484211,2.81877212 0.700016842,3.50190265 1.54446947,3.50190265 L10.7211095,3.50190265 C11.5663263,3.50190265 12.2510589,2.81877212 12.2510589,1.97459071 C12.2510589,1.13040929 11.5663263,0.447278761 10.7211095,0.447278761 L1.54446947,0.447278761 Z" id="path-27"></path>
        <path d="M1.54446947,0.447278761 C0.700016842,0.447278761 0.0160484211,1.13040929 0.0160484211,1.97459071 C0.0160484211,2.81877212 0.700016842,3.50190265 1.54446947,3.50190265 L10.7211095,3.50190265 C11.5663263,3.50190265 12.2510589,2.81877212 12.2510589,1.97459071 C12.2510589,1.13040929 11.5663263,0.447278761 10.7211095,0.447278761 L1.54446947,0.447278761 Z" id="path-29"></path>
        <path d="M1.54446947,0.467123894 C0.700016842,0.467123894 0.0160484211,1.1510177 0.0160484211,1.99596239 C0.0160484211,2.83861726 0.700016842,3.52251106 1.54446947,3.52251106 L38.2502653,3.52251106 C39.0939537,3.52251106 39.7786863,2.83861726 39.7786863,1.99596239 C39.7786863,1.1510177 39.0939537,0.467123894 38.2502653,0.467123894 L1.54446947,0.467123894 Z" id="path-31"></path>
        <path d="M7.88970947,0.455674779 C3.54135158,0.455674779 0.0160484211,3.19201327 0.0160484211,6.56644912 C0.0160484211,9.94088496 3.54135158,12.6756969 7.88970947,12.6756969 L116.160764,12.6756969 C120.510651,12.6756969 124.035954,9.94088496 124.035954,6.56644912 C124.035954,3.19201327 120.510651,0.455674779 116.160764,0.455674779 L7.88970947,0.455674779 Z" id="path-33"></path>
        <path d="M1.54446947,0.47170354 C0.700016842,0.47170354 0.0160484211,1.15559735 0.0160484211,1.99901549 C0.0160484211,2.84243363 0.700016842,3.52632743 1.54446947,3.52632743 L22.95612,3.52632743 C23.8005726,3.52632743 24.4853053,2.84243363 24.4853053,1.99901549 C24.4853053,1.15559735 23.8005726,0.47170354 22.95612,0.47170354 L1.54446947,0.47170354 Z" id="path-35"></path>
        <path d="M1.54446947,0.47170354 C0.700016842,0.47170354 0.0160484211,1.15559735 0.0160484211,1.99901549 C0.0160484211,2.84243363 0.700016842,3.52632743 1.54446947,3.52632743 L22.95612,3.52632743 C23.8005726,3.52632743 24.4853053,2.84243363 24.4853053,1.99901549 C24.4853053,1.15559735 23.8005726,0.47170354 22.95612,0.47170354 L1.54446947,0.47170354 Z" id="path-37"></path>
        <path d="M1.54446947,0.492311947 C0.700016842,0.492311947 0.0160484211,1.17620575 0.0160484211,2.01886062 C0.0160484211,2.86304204 0.700016842,3.54769912 1.54446947,3.54769912 L56.6020168,3.54769912 C57.4464695,3.54769912 58.1312021,2.86304204 58.1312021,2.01886062 C58.1312021,1.17620575 57.4464695,0.492311947 56.6020168,0.492311947 L1.54446947,0.492311947 Z" id="path-39"></path>
        <path d="M7.88970947,0.480862832 C3.54135158,0.480862832 0.0160484211,3.21643805 0.0160484211,6.59087389 C0.0160484211,9.96454646 3.54135158,12.700885 7.88970947,12.700885 L116.160764,12.700885 C120.510651,12.700885 124.035954,9.96454646 124.035954,6.59087389 C124.035954,3.21643805 120.510651,0.480862832 116.160764,0.480862832 L7.88970947,0.480862832 Z" id="path-41"></path>
        <path d="M1.54446947,0.495365044 C0.700016842,0.495365044 0.0160484211,1.18002212 0.0160484211,2.02420354 C0.0160484211,2.86685841 0.700016842,3.55075221 1.54446947,3.55075221 L41.3086358,3.55075221 C42.1530884,3.55075221 42.8378211,2.86685841 42.8378211,2.02420354 C42.8378211,1.18002212 42.1530884,0.495365044 41.3086358,0.495365044 L1.54446947,0.495365044 Z" id="path-43"></path>
        <path d="M1.54446947,0.495365044 C0.700016842,0.495365044 0.0160484211,1.18002212 0.0160484211,2.02420354 C0.0160484211,2.86685841 0.700016842,3.55075221 1.54446947,3.55075221 L41.3086358,3.55075221 C42.1530884,3.55075221 42.8378211,2.86685841 42.8378211,2.02420354 C42.8378211,1.18002212 42.1530884,0.495365044 41.3086358,0.495365044 L1.54446947,0.495365044 Z" id="path-45"></path>
        <path d="M7.88970947,0.505287611 C3.54135158,0.505287611 0.0160484211,3.24086283 0.0160484211,6.61529867 C0.0160484211,9.98973451 3.54135158,12.7253097 7.88970947,12.7253097 L116.160764,12.7253097 C120.510651,12.7253097 124.035954,9.98973451 124.035954,6.61529867 C124.035954,3.24086283 120.510651,0.505287611 116.160764,0.505287611 L7.88970947,0.505287611 Z" id="path-47"></path>
    </defs>
    <g id="Page-1" stroke="none" stroke-width="1" fill="none" fill-rule="evenodd">
        <g id="Desktop-HD" transform="translate(-778.000000, -2153.000000)">
            <g id="Robust" transform="translate(778.000000, 2153.000000)">
                <g id="Group-3" transform="translate(0.000000, 10.000000)" fill="#26CC6D">
                    <polygon id="Rectangle-18" fill-opacity="0.8" opacity="0.501868207" points="93.2392821 189 217.363061 191.351773 243.287559 330.10667 113.13922 327.64075"></polygon>
                    <polygon id="Rectangle-18" fill-opacity="0.7" opacity="0.501868207" points="120.925881 208.334636 249.40488 210.768927 276.239282 354.375459 141.524335 351.823016"></polygon>
                    <polygon id="Rectangle-18" fill-opacity="0.8" opacity="0.315953351" points="0 0 83.1453683 0 102 72 14.819029 72"></polygon>
                    <polygon id="Rectangle-18" fill-opacity="0.7" opacity="0.315953351" points="18 10 104.405971 10 124 85 33.4001674 85"></polygon>
                </g>
                <g id="Group-14" transform="translate(49.000000, 0.440409)">
                    <path d="M136.52646,326.316113 L22.4817943,326.316113 C10.552468,326.316113 0.793499579,316.568336 0.793499579,304.653624 L0.793499579,21.984896 C0.793499579,10.0709469 10.552468,0.323170354 22.4817943,0.323170354 L136.52646,0.323170354 C148.455022,0.323170354 158.215519,10.0709469 158.215519,21.984896 L158.215519,304.653624 C158.215519,316.568336 148.455022,326.316113 136.52646,326.316113" id="Fill-4" fill="#1F2532"></path>
                    <path d="M89.9764058,306.06788 C89.9764058,299.71202 84.8333913,294.559591 78.4882029,294.559591 C72.1437778,294.559591 67,299.71202 67,306.06788 C67,312.42374 72.1437778,317.575404 78.4882029,317.575404 C84.8333913,317.575404 89.9764058,312.42374 89.9764058,306.06788" id="Fill-11" fill="#465561"></path>
                    <polygon id="Fill-6" fill="#F0EDE6" points="150.777763 39.3465631 8.23033789 39.3465631 8.23033789 202.582702 150.777763 61.1937644"></polygon>
                    <polygon id="Fill-8" fill="#EAE4DA" points="8.23010863 202.582931 8.23010863 287.50865 150.777534 287.50865 150.777534 61.1939934"></polygon>
                    <path d="M92.0186093,22.3882865 L66.9891861,22.3882865 C66.4015082,22.3882865 65.9208198,21.9074237 65.9208198,21.321229 C65.9208198,20.734271 66.4015082,20.2534082 66.9891861,20.2534082 L92.0186093,20.2534082 C92.6070514,20.2534082 93.0869756,20.734271 93.0869756,21.321229 C93.0869756,21.9074237 92.6070514,22.3882865 92.0186093,22.3882865" id="Fill-10" fill="#465561"></path>
                    <polygon id="Fill-12" fill="#FFFFFF" points="8.40572421 287.352179 150.778145 287.352179 150.778145 39.2880199 8.40572421 39.2880199"></polygon>
                </g>
                <g id="Group-17" transform="translate(66.566316, 54.632887)">
                    <mask id="mask-2" fill="white">
                        <use xlink:href="#path-1"></use>
                    </mask>
                    <g id="Clip-16"></g>
                    <polygon id="Fill-15" fill="#10572F" mask="url(#mask-2)" points="-1.51313684 4.95212389 26.0144905 4.95212389 26.0144905 -1.15788717 -1.51313684 -1.15788717"></polygon>
                </g>
                <path d="M101.757293,55.0025409 L123.168944,55.0025409 C124.012632,55.0025409 124.698129,55.6864347 124.698129,56.5306162 C124.698129,57.373271 124.012632,58.0579281 123.168944,58.0579281 L101.757293,58.0579281 C100.912841,58.0579281 100.228108,57.373271 100.228108,56.5306162 C100.228108,55.6864347 100.912841,55.0025409 101.757293,55.0025409" id="Fill-18" fill="#F55D50"></path>
                <g id="Group-22" transform="translate(100.191579, 54.632887)">
                    <mask id="mask-4" fill="white">
                        <use xlink:href="#path-3"></use>
                    </mask>
                    <g id="Clip-21"></g>
                    <polygon id="Fill-20" fill="#F55D50" mask="url(#mask-4)" points="-42.7858547 233.159701 71.9167958 233.159701 71.9167958 -14.904458 -42.7858547 -14.904458"></polygon>
                </g>
                <g id="Group-25" transform="translate(100.191579, 54.632887)">
                    <mask id="mask-6" fill="white">
                        <use xlink:href="#path-5"></use>
                    </mask>
                    <g id="Clip-24"></g>
                    <polygon id="Fill-23" fill="#569D7C" mask="url(#mask-6)" points="-1.49326737 4.95212389 26.0351242 4.95212389 26.0351242 -1.15788717 -1.49326737 -1.15788717"></polygon>
                </g>
                <path d="M68.1111674,94.7173838 L101.757064,94.7173838 C102.602281,94.7173838 103.286249,95.4012777 103.286249,96.2446958 C103.286249,97.0881139 102.602281,97.772771 101.757064,97.772771 L68.1111674,97.772771 C67.2667147,97.772771 66.5819821,97.0881139 66.5819821,96.2446958 C66.5819821,95.4012777 67.2667147,94.7173838 68.1111674,94.7173838" id="Fill-26" fill="#C83426"></path>
                <g id="Group-31" transform="translate(66.566316, 94.323153)">
                    <mask id="mask-8" fill="white">
                        <use xlink:href="#path-7"></use>
                    </mask>
                    <g id="Clip-29"></g>
                    <polygon id="Fill-28" fill="#C83426" mask="url(#mask-8)" points="-9.16059158 193.469436 105.542059 193.469436 105.542059 -54.5947235 -9.16059158 -54.5947235"></polygon>
                    <polygon id="Fill-30" fill="#10572F" mask="url(#mask-8)" points="-1.51313684 4.97654867 38.2502653 4.97654867 38.2502653 -1.13346239 -1.51313684 -1.13346239"></polygon>
                </g>
                <path d="M74.4561781,76.387656 L182.727233,76.387656 C187.076355,76.387656 190.601658,79.1232312 190.601658,82.497667 C190.601658,85.8721029 187.076355,88.6076781 182.727233,88.6076781 L74.4561781,88.6076781 C70.1078202,88.6076781 66.5817528,85.8721029 66.5817528,82.497667 C66.5817528,79.1232312 70.1078202,76.387656 74.4561781,76.387656" id="Fill-32" fill="#D8DDE6"></path>
                <g id="Group-37" transform="translate(66.566316, 76.004569)">
                    <mask id="mask-10" fill="white">
                        <use xlink:href="#path-9"></use>
                    </mask>
                    <g id="Clip-35"></g>
                    <polygon id="Fill-34" fill="#D8DDE6" mask="url(#mask-10)" points="-11.7963537 211.78802 135.846063 211.78802 135.846063 -36.2761394 -11.7963537 -36.2761394"></polygon>
                    <polygon id="Fill-36" fill="#D8DDE6" mask="url(#mask-10)" points="-1.95332211 14.1304978 126.003796 14.1304978 126.003796 -1.14414823 -1.95332211 -1.14414823"></polygon>
                </g>
                <path d="M68.1111674,100.827319 L83.4053126,100.827319 C84.2497653,100.827319 84.9344979,101.511212 84.9344979,102.354631 C84.9344979,103.198049 84.2497653,103.882706 83.4053126,103.882706 L68.1111674,103.882706 C67.2667147,103.882706 66.5819821,103.198049 66.5819821,102.354631 C66.5819821,101.511212 67.2667147,100.827319 68.1111674,100.827319" id="Fill-38" fill="#F55D50"></path>
                <g id="Group-42" transform="translate(66.566316, 100.429347)">
                    <mask id="mask-12" fill="white">
                        <use xlink:href="#path-11"></use>
                    </mask>
                    <g id="Clip-41"></g>
                    <polygon id="Fill-40" fill="#F55D50" mask="url(#mask-12)" points="-9.16059158 187.363241 105.542059 187.363241 105.542059 -60.7009181 -9.16059158 -60.7009181"></polygon>
                </g>
                <g id="Group-45" transform="translate(66.566316, 100.429347)">
                    <mask id="mask-14" fill="white">
                        <use xlink:href="#path-13"></use>
                    </mask>
                    <g id="Clip-44"></g>
                    <polygon id="Fill-43" fill="#569D7C" mask="url(#mask-14)" points="-1.51313684 4.98036504 19.8977495 4.98036504 19.8977495 -1.12964602 -1.51313684 -1.12964602"></polygon>
                </g>
                <path d="M68.1111674,134.432227 L113.992075,134.432227 C114.837292,134.432227 115.52126,135.116121 115.52126,135.959539 C115.52126,136.802957 114.837292,137.486851 113.992075,137.486851 L68.1111674,137.486851 C67.2667147,137.486851 66.5819821,136.802957 66.5819821,135.959539 C66.5819821,135.116121 67.2667147,134.432227 68.1111674,134.432227" id="Fill-46" fill="#C83426"></path>
                <g id="Group-51" transform="translate(66.566316, 134.013418)">
                    <mask id="mask-16" fill="white">
                        <use xlink:href="#path-15"></use>
                    </mask>
                    <g id="Clip-49"></g>
                    <polygon id="Fill-48" fill="#C83426" mask="url(#mask-16)" points="-9.16059158 153.77917 105.542059 153.77917 105.542059 -94.2849889 -9.16059158 -94.2849889"></polygon>
                    <polygon id="Fill-50" fill="#10572F" mask="url(#mask-16)" points="-1.51313684 5.00173673 50.4852758 5.00173673 50.4852758 -1.10827434 -1.51313684 -1.10827434"></polygon>
                </g>
                <path d="M74.4561781,116.102499 L182.727233,116.102499 C187.076355,116.102499 190.601658,118.838074 190.601658,122.21251 C190.601658,125.586946 187.076355,128.322521 182.727233,128.322521 L74.4561781,128.322521 C70.1078202,128.322521 66.5817528,125.586946 66.5817528,122.21251 C66.5817528,118.838074 70.1078202,116.102499 74.4561781,116.102499" id="Fill-52" fill="#D8DDE6"></path>
                <g id="Group-57" transform="translate(66.566316, 115.694834)">
                    <mask id="mask-18" fill="white">
                        <use xlink:href="#path-17"></use>
                    </mask>
                    <g id="Clip-55"></g>
                    <polygon id="Fill-54" fill="#D8DDE6" mask="url(#mask-18)" points="-11.7963537 172.097754 135.846063 172.097754 135.846063 -75.9664049 -11.7963537 -75.9664049"></polygon>
                    <polygon id="Fill-56" fill="#D8DDE6" mask="url(#mask-18)" points="-1.95332211 14.1549226 126.003796 14.1549226 126.003796 -1.12048673 -1.95332211 -1.12048673"></polygon>
                </g>
                <path d="M68.1111674,140.542162 L92.5811884,140.542162 C93.4256411,140.542162 94.1103737,141.226055 94.1103737,142.069473 C94.1103737,142.912892 93.4256411,143.596785 92.5811884,143.596785 L68.1111674,143.596785 C67.2667147,143.596785 66.5819821,142.912892 66.5819821,142.069473 C66.5819821,141.226055 67.2667147,140.542162 68.1111674,140.542162" id="Fill-58" fill="#F55D50"></path>
                <g id="Group-62" transform="translate(66.566316, 140.119613)">
                    <mask id="mask-20" fill="white">
                        <use xlink:href="#path-19"></use>
                    </mask>
                    <g id="Clip-61"></g>
                    <polygon id="Fill-60" fill="#F55D50" mask="url(#mask-20)" points="-9.16059158 147.672976 105.542059 147.672976 105.542059 -100.391184 -9.16059158 -100.391184"></polygon>
                </g>
                <g id="Group-65" transform="translate(66.566316, 140.119613)">
                    <mask id="mask-22" fill="white">
                        <use xlink:href="#path-21"></use>
                    </mask>
                    <g id="Clip-64"></g>
                    <polygon id="Fill-63" fill="#569D7C" mask="url(#mask-22)" points="-1.51313684 5.0055531 29.0736253 5.0055531 29.0736253 -1.10445796 -1.51313684 -1.10445796"></polygon>
                </g>
                <path d="M68.1111674,174.147146 L92.5811884,174.147146 C93.4256411,174.147146 94.1103737,174.83104 94.1103737,175.674458 C94.1103737,176.517876 93.4256411,177.20177 92.5811884,177.20177 L68.1111674,177.20177 C67.2667147,177.20177 66.5819821,176.517876 66.5819821,175.674458 C66.5819821,174.83104 67.2667147,174.147146 68.1111674,174.147146" id="Fill-66" fill="#C83426"></path>
                <g id="Group-71" transform="translate(66.566316, 173.703684)">
                    <mask id="mask-24" fill="white">
                        <use xlink:href="#path-23"></use>
                    </mask>
                    <g id="Clip-69"></g>
                    <polygon id="Fill-68" fill="#C83426" mask="url(#mask-24)" points="-9.16059158 114.088905 105.542059 114.088905 105.542059 -133.975254 -9.16059158 -133.975254"></polygon>
                    <polygon id="Fill-70" fill="#10572F" mask="url(#mask-24)" points="-1.51313684 5.02539823 29.0736253 5.02539823 29.0736253 -1.08461283 -1.51313684 -1.08461283"></polygon>
                </g>
                <path d="M74.4561781,155.817342 L182.727233,155.817342 C187.076355,155.817342 190.601658,158.552154 190.601658,161.927353 C190.601658,165.301789 187.076355,168.037364 182.727233,168.037364 L74.4561781,168.037364 C70.1078202,168.037364 66.5817528,165.301789 66.5817528,161.927353 C66.5817528,158.552154 70.1078202,155.817342 74.4561781,155.817342" id="Fill-72" fill="#D8DDE6"></path>
                <g id="Group-77" transform="translate(66.566316, 155.385100)">
                    <mask id="mask-26" fill="white">
                        <use xlink:href="#path-25"></use>
                    </mask>
                    <g id="Clip-75"></g>
                    <polygon id="Fill-74" fill="#D8DDE6" mask="url(#mask-26)" points="-11.7963537 132.407489 135.846063 132.407489 135.846063 -115.65667 -11.7963537 -115.65667"></polygon>
                    <polygon id="Fill-76" fill="#D8DDE6" mask="url(#mask-26)" points="-1.95332211 14.1793473 126.003796 14.1793473 126.003796 -1.09606195 -1.95332211 -1.09606195"></polygon>
                </g>
                <path d="M68.1111674,180.257004 L77.2878074,180.257004 C78.13226,180.257004 78.8169926,180.940898 78.8169926,181.784316 C78.8169926,182.627735 78.13226,183.311628 77.2878074,183.311628 L68.1111674,183.311628 C67.2667147,183.311628 66.5819821,182.627735 66.5819821,181.784316 C66.5819821,180.940898 67.2667147,180.257004 68.1111674,180.257004" id="Fill-78" fill="#F55D50"></path>
                <g id="Group-82" transform="translate(66.566316, 179.809878)">
                    <mask id="mask-28" fill="white">
                        <use xlink:href="#path-27"></use>
                    </mask>
                    <g id="Clip-81"></g>
                    <polygon id="Fill-80" fill="#F55D50" mask="url(#mask-28)" points="-9.16059158 107.98271 105.542059 107.98271 105.542059 -140.081449 -9.16059158 -140.081449"></polygon>
                </g>
                <g id="Group-85" transform="translate(66.566316, 179.809878)">
                    <mask id="mask-30" fill="white">
                        <use xlink:href="#path-29"></use>
                    </mask>
                    <g id="Clip-84"></g>
                    <polygon id="Fill-83" fill="#569D7C" mask="url(#mask-30)" points="-1.51313684 5.0292146 13.7802442 5.0292146 13.7802442 -1.08079646 -1.51313684 -1.08079646"></polygon>
                </g>
                <path d="M68.1111674,213.861226 L104.816199,213.861226 C105.660652,213.861226 106.345384,214.545119 106.345384,215.389301 C106.345384,216.231956 105.660652,216.916613 104.816199,216.916613 L68.1111674,216.916613 C67.2667147,216.916613 66.5819821,216.231956 66.5819821,215.389301 C66.5819821,214.545119 67.2667147,213.861226 68.1111674,213.861226" id="Fill-86" fill="#C83426"></path>
                <g id="Group-91" transform="translate(66.566316, 213.393949)">
                    <mask id="mask-32" fill="white">
                        <use xlink:href="#path-31"></use>
                    </mask>
                    <g id="Clip-89"></g>
                    <polygon id="Fill-88" fill="#C83426" mask="url(#mask-32)" points="-9.16059158 74.3986394 105.542059 74.3986394 105.542059 -173.66552 -9.16059158 -173.66552"></polygon>
                    <polygon id="Fill-90" fill="#10572F" mask="url(#mask-32)" points="-1.51313684 5.04982301 41.3086358 5.04982301 41.3086358 -1.06018805 -1.51313684 -1.06018805"></polygon>
                </g>
                <path d="M74.4561781,195.531498 L182.727233,195.531498 C187.076355,195.531498 190.601658,198.267073 190.601658,201.641509 C190.601658,205.015945 187.076355,207.75152 182.727233,207.75152 L74.4561781,207.75152 C70.1078202,207.75152 66.5817528,205.015945 66.5817528,201.641509 C66.5817528,198.267073 70.1078202,195.531498 74.4561781,195.531498" id="Fill-92" fill="#D8DDE6"></path>
                <g id="Group-97" transform="translate(66.566316, 195.075365)">
                    <mask id="mask-34" fill="white">
                        <use xlink:href="#path-33"></use>
                    </mask>
                    <g id="Clip-95"></g>
                    <polygon id="Fill-94" fill="#D8DDE6" mask="url(#mask-34)" points="-11.7963537 92.7172235 135.846063 92.7172235 135.846063 -155.346936 -11.7963537 -155.346936"></polygon>
                    <polygon id="Fill-96" fill="#D8DDE6" mask="url(#mask-34)" points="-1.95332211 14.2037721 126.003796 14.2037721 126.003796 -1.07163717 -1.95332211 -1.07163717"></polygon>
                </g>
                <path d="M68.1111674,219.97116 L89.5228179,219.97116 C90.3672705,219.97116 91.0520032,220.655054 91.0520032,221.499236 C91.0520032,222.342654 90.3672705,223.026548 89.5228179,223.026548 L68.1111674,223.026548 C67.2667147,223.026548 66.5819821,222.342654 66.5819821,221.499236 C66.5819821,220.655054 67.2667147,219.97116 68.1111674,219.97116" id="Fill-98" fill="#F55D50"></path>
                <g id="Group-102" transform="translate(66.566316, 219.500144)">
                    <mask id="mask-36" fill="white">
                        <use xlink:href="#path-35"></use>
                    </mask>
                    <g id="Clip-101"></g>
                    <polygon id="Fill-100" fill="#F55D50" mask="url(#mask-36)" points="-9.16059158 68.2924447 105.542059 68.2924447 105.542059 -179.771715 -9.16059158 -179.771715"></polygon>
                </g>
                <g id="Group-105" transform="translate(66.566316, 219.500144)">
                    <mask id="mask-38" fill="white">
                        <use xlink:href="#path-37"></use>
                    </mask>
                    <g id="Clip-104"></g>
                    <polygon id="Fill-103" fill="#569D7C" mask="url(#mask-38)" points="-1.51313684 5.05363938 26.0144905 5.05363938 26.0144905 -1.05637168 -1.51313684 -1.05637168"></polygon>
                </g>
                <path d="M68.1111674,253.576069 L123.168715,253.576069 C124.012403,253.576069 124.6979,254.259962 124.6979,255.103381 C124.6979,255.946799 124.012403,256.631456 123.168715,256.631456 L68.1111674,256.631456 C67.2667147,256.631456 66.5819821,255.946799 66.5819821,255.103381 C66.5819821,254.259962 67.2667147,253.576069 68.1111674,253.576069" id="Fill-106" fill="#C83426"></path>
                <g id="Group-111" transform="translate(66.566316, 253.084215)">
                    <mask id="mask-40" fill="white">
                        <use xlink:href="#path-39"></use>
                    </mask>
                    <g id="Clip-109"></g>
                    <polygon id="Fill-108" fill="#C83426" mask="url(#mask-40)" points="-9.16059158 34.7083739 105.542059 34.7083739 105.542059 -213.355785 -9.16059158 -213.355785"></polygon>
                    <polygon id="Fill-110" fill="#10572F" mask="url(#mask-40)" points="-1.51313684 5.07424779 59.6611516 5.07424779 59.6611516 -1.03576327 -1.51313684 -1.03576327"></polygon>
                </g>
                <path d="M74.4561781,235.246341 L182.727233,235.246341 C187.076355,235.246341 190.601658,237.981916 190.601658,241.356352 C190.601658,244.730788 187.076355,247.466363 182.727233,247.466363 L74.4561781,247.466363 C70.1078202,247.466363 66.5817528,244.730788 66.5817528,241.356352 C66.5817528,237.981916 70.1078202,235.246341 74.4561781,235.246341" id="Fill-112" fill="#D8DDE6"></path>
                <g id="Group-117" transform="translate(66.566316, 234.765631)">
                    <mask id="mask-42" fill="white">
                        <use xlink:href="#path-41"></use>
                    </mask>
                    <g id="Clip-115"></g>
                    <polygon id="Fill-114" fill="#D8DDE6" mask="url(#mask-42)" points="-11.7963537 53.026958 135.846063 53.026958 135.846063 -195.037201 -11.7963537 -195.037201"></polygon>
                    <polygon id="Fill-116" fill="#D8DDE6" mask="url(#mask-42)" points="-1.95332211 14.2281969 126.003796 14.2281969 126.003796 -1.04644912 -1.95332211 -1.04644912"></polygon>
                </g>
                <path d="M68.1111674,259.686003 L107.874569,259.686003 C108.719786,259.686003 109.403755,260.369897 109.403755,261.214079 C109.403755,262.056733 108.719786,262.74139 107.874569,262.74139 L68.1111674,262.74139 C67.2667147,262.74139 66.5819821,262.056733 66.5819821,261.214079 C66.5819821,260.369897 67.2667147,259.686003 68.1111674,259.686003" id="Fill-118" fill="#F55D50"></path>
                <g id="Group-122" transform="translate(66.566316, 259.190409)">
                    <mask id="mask-44" fill="white">
                        <use xlink:href="#path-43"></use>
                    </mask>
                    <g id="Clip-121"></g>
                    <polygon id="Fill-120" fill="#F55D50" mask="url(#mask-44)" points="-9.16059158 28.6021792 105.542059 28.6021792 105.542059 -219.46198 -9.16059158 -219.46198"></polygon>
                </g>
                <g id="Group-125" transform="translate(66.566316, 259.190409)">
                    <mask id="mask-46" fill="white">
                        <use xlink:href="#path-45"></use>
                    </mask>
                    <g id="Clip-124"></g>
                    <polygon id="Fill-123" fill="#569D7C" mask="url(#mask-46)" points="-1.51313684 5.07806416 44.3677705 5.07806416 44.3677705 -1.0319469 -1.51313684 -1.0319469"></polygon>
                </g>
                <path d="M74.4561781,274.961184 L182.727233,274.961184 C187.076355,274.961184 190.601658,277.696759 190.601658,281.071195 C190.601658,284.445631 187.076355,287.181206 182.727233,287.181206 L74.4561781,287.181206 C70.1078202,287.181206 66.5817528,284.445631 66.5817528,281.071195 C66.5817528,277.696759 70.1078202,274.961184 74.4561781,274.961184" id="Fill-126" fill="#D8DDE6"></path>
                <g id="Group-131" transform="translate(66.566316, 274.455896)">
                    <mask id="mask-48" fill="white">
                        <use xlink:href="#path-47"></use>
                    </mask>
                    <g id="Clip-129"></g>
                    <polygon id="Fill-128" fill="#D8DDE6" mask="url(#mask-48)" points="-11.7963537 13.3366925 135.846063 13.3366925 135.846063 -234.727467 -11.7963537 -234.727467"></polygon>
                    <polygon id="Fill-130" fill="#D8DDE6" mask="url(#mask-48)" points="-1.95332211 14.2526217 126.003796 14.2526217 126.003796 -1.02202434 -1.95332211 -1.02202434"></polygon>
                </g>
            </g>
        </g>
    </g>
</svg>