<?xml version="1.0" encoding="UTF-8"?>
<svg width="595px" height="335px" viewBox="0 0 595 335" version="1.1" xmlns="http://www.w3.org/2000/svg" xmlns:xlink="http://www.w3.org/1999/xlink">
    <!-- Generator: Sketch 50.2 (55047) - http://www.bohemiancoding.com/sketch -->
    <title>Specific</title>
    <desc>Created with Sketch.</desc>
    <defs>
        <path d="M3.6019259,0.069441402 C1.80713843,0.069441402 0.352326988,1.62423439 0.352326988,3.54220591 C0.352326988,5.45948302 1.80713843,7.0135816 3.6019259,7.0135816 L66.0073561,7.0135816 C67.8014935,7.0135816 69.256955,5.45948302 69.256955,3.54220591 C69.256955,1.62423439 67.8014935,0.069441402 66.0073561,0.069441402 L3.6019259,0.069441402 Z" id="path-1"></path>
        <path d="M3.60530788,0.636777656 C1.80883521,0.636777656 0.3526578,2.19087623 0.3526578,4.10954217 C0.3526578,6.02681928 1.80883521,7.58091785 3.60530788,7.58091785 L202.056653,7.58091785 C203.853125,7.58091785 205.309954,6.02681928 205.309954,4.10954217 C205.309954,2.19087623 203.853125,0.636777656 202.056653,0.636777656 L3.60530788,0.636777656 Z" id="path-3"></path>
        <path d="M3.60530788,0.50969989 C1.80883521,0.50969989 0.3526578,2.06449288 0.3526578,3.98107558 C0.3526578,5.8990471 1.80883521,7.45384009 3.60530788,7.45384009 L202.056653,7.45384009 C203.853125,7.45384009 205.309954,5.8990471 205.309954,3.98107558 C205.309954,2.06449288 203.853125,0.50969989 202.056653,0.50969989 L3.60530788,0.50969989 Z" id="path-5"></path>
        <path d="M3.60530788,0.381927711 C1.80883521,0.381927711 0.3526578,1.9367207 0.3526578,3.85399781 C0.3526578,5.77127492 1.80883521,7.32537349 3.60530788,7.32537349 L202.056653,7.32537349 C203.853125,7.32537349 205.309954,5.77127492 205.309954,3.85399781 C205.309954,1.9367207 203.853125,0.381927711 202.056653,0.381927711 L3.60530788,0.381927711 Z" id="path-7"></path>
        <path d="M3.60530788,0.254155531 C1.80883521,0.254155531 0.3526578,1.80964294 0.3526578,3.72692004 C0.3526578,5.64419715 1.80883521,7.19829573 3.60530788,7.19829573 L202.056653,7.19829573 C203.853125,7.19829573 205.309954,5.64419715 205.309954,3.72692004 C205.309954,1.80964294 203.853125,0.254155531 202.056653,0.254155531 L3.60530788,0.254155531 Z" id="path-9"></path>
        <path d="M3.60530788,0.12777218 C1.80883521,0.12777218 0.3526578,1.68187076 0.3526578,3.59914786 C0.3526578,5.51711939 1.80883521,7.07191238 3.60530788,7.07191238 L202.056653,7.07191238 C203.853125,7.07191238 205.309954,5.51711939 205.309954,3.59914786 C205.309954,1.68187076 203.853125,0.12777218 202.056653,0.12777218 L3.60530788,0.12777218 Z" id="path-11"></path>
        <path d="M3.60530788,0 C1.80883521,0 0.3526578,1.53855759 0.3526578,3.4373494 C0.3526578,5.33476627 1.80883521,6.8746988 3.60530788,6.8746988 L202.056653,6.8746988 C203.853125,6.8746988 205.309954,5.33476627 205.309954,3.4373494 C205.309954,1.53855759 203.853125,0 202.056653,0 L3.60530788,0 Z" id="path-13"></path>
        <path d="M3.60778985,0 C1.81008045,0 0.352900577,1.53924506 0.352900577,3.4373494 C0.352900577,5.3361412 1.81008045,6.8746988 3.60778985,6.8746988 L49.1853551,6.8746988 C50.9830645,6.8746988 52.4408955,5.3361412 52.4408955,3.4373494 C52.4408955,1.53924506 50.9830645,0 49.1853551,0 L3.60778985,0 Z" id="path-15"></path>
        <path d="M1.34444861,0.412481928 C0.684944707,0.412481928 0.149383179,0.96933253 0.149383179,1.65680241 C0.149383179,2.34427229 0.684944707,2.90188675 1.34444861,2.90188675 L74.4482711,2.90188675 C75.1084273,2.90188675 75.6433365,2.34427229 75.6433365,1.65680241 C75.6433365,0.96933253 75.1084273,0.412481928 74.4482711,0.412481928 L1.34444861,0.412481928 Z" id="path-17"></path>
        <path d="M1.3390165,0.467479518 C0.682177254,0.467479518 0.148779611,1.02509398 0.148779611,1.71256386 C0.148779611,2.39926988 0.682177254,2.95688434 1.3390165,2.95688434 L24.1809097,2.95688434 C24.8383987,2.95688434 25.3704969,2.39926988 25.3704969,1.71256386 C25.3704969,1.02509398 24.8383987,0.467479518 24.1809097,0.467479518 L1.3390165,0.467479518 Z" id="path-19"></path>
        <path d="M1.34444861,0.440744578 C0.684944707,0.440744578 0.149383179,0.997595181 0.149383179,1.68582892 C0.149383179,2.37253494 0.684944707,2.92938554 1.34444861,2.92938554 L74.4482711,2.92938554 C75.1084273,2.92938554 75.6433365,2.37253494 75.6433365,1.68582892 C75.6433365,0.997595181 75.1084273,0.440744578 74.4482711,0.440744578 L1.34444861,0.440744578 Z" id="path-21"></path>
        <path d="M1.34444861,0.384983133 C0.684944707,0.384983133 0.149383179,0.94259759 0.149383179,1.62930361 C0.149383179,2.31753735 0.684944707,2.87438795 1.34444861,2.87438795 L74.4482711,2.87438795 C75.1084273,2.87438795 75.6433365,2.31753735 75.6433365,1.62930361 C75.6433365,0.94259759 75.1084273,0.384983133 74.4482711,0.384983133 L1.34444861,0.384983133 Z" id="path-23"></path>
        <path d="M1.34444861,0.356720482 C0.684944707,0.356720482 0.149383179,0.91433494 0.149383179,1.60180482 C0.149383179,2.2892747 0.684944707,2.84688916 1.34444861,2.84688916 L74.2095189,2.84688916 C74.8690228,2.84688916 75.403932,2.2892747 75.403932,1.60180482 C75.403932,0.91433494 74.8690228,0.356720482 74.2095189,0.356720482 L1.34444861,0.356720482 Z" id="path-25"></path>
        <path d="M1.34444861,0.329221687 C0.684944707,0.329221687 0.149383179,0.886836145 0.149383179,1.57430602 C0.149383179,2.2617759 0.684944707,2.81862651 1.34444861,2.81862651 L74.2095189,2.81862651 C74.8690228,2.81862651 75.403932,2.2617759 75.403932,1.57430602 C75.403932,0.886836145 74.8690228,0.329221687 74.2095189,0.329221687 L1.34444861,0.329221687 Z" id="path-27"></path>
        <path d="M1.34444861,0.268113253 C0.684944707,0.268113253 0.149383179,0.824963855 0.149383179,1.51243373 C0.149383179,2.19990361 0.684944707,2.75751807 1.34444861,2.75751807 L74.2095189,2.75751807 C74.8690228,2.75751807 75.403932,2.19990361 75.403932,1.51243373 C75.403932,0.824963855 74.8690228,0.268113253 74.2095189,0.268113253 L1.34444861,0.268113253 Z" id="path-29"></path>
        <path d="M1.34444861,0.239086747 C0.684944707,0.239086747 0.149383179,0.796701205 0.149383179,1.48417108 C0.149383179,2.17240482 0.684944707,2.72925542 1.34444861,2.72925542 L74.2095189,2.72925542 C74.8690228,2.72925542 75.403932,2.17240482 75.403932,1.48417108 C75.403932,0.796701205 74.8690228,0.239086747 74.2095189,0.239086747 L1.34444861,0.239086747 Z" id="path-31"></path>
        <path d="M1.34444861,0.212351807 C0.684944707,0.212351807 0.149383179,0.76920241 0.149383179,1.45743614 C0.149383179,2.14414217 0.684944707,2.70252048 1.34444861,2.70252048 L74.2095189,2.70252048 C74.8690228,2.70252048 75.403932,2.14414217 75.403932,1.45743614 C75.403932,0.76920241 74.8690228,0.212351807 74.2095189,0.212351807 L1.34444861,0.212351807 Z" id="path-33"></path>
        <path d="M1.34444861,0.184089157 C0.684944707,0.184089157 0.149383179,0.741703614 0.149383179,1.42917349 C0.149383179,2.11587952 0.684944707,2.67349398 1.34444861,2.67349398 L74.2095189,2.67349398 C74.8690228,2.67349398 75.403932,2.11587952 75.403932,1.42917349 C75.403932,0.741703614 74.8690228,0.184089157 74.2095189,0.184089157 L1.34444861,0.184089157 Z" id="path-35"></path>
        <path d="M1.02604909,0.578696867 C0.539859676,0.578696867 0.144593995,1.02417735 0.144593995,1.57354217 C0.144593995,2.12412916 0.539859676,2.56960964 1.02604909,2.56960964 L13.3651576,2.56960964 C13.851347,2.56960964 14.2466127,2.12412916 14.2466127,1.57354217 C14.2466127,1.02417735 13.851347,0.578696867 13.3651576,0.578696867 L1.02604909,0.578696867 Z" id="path-37"></path>
    </defs>
    <g id="Page-1" stroke="none" stroke-width="1" fill="none" fill-rule="evenodd">
        <g id="Desktop-HD" transform="translate(-749.000000, -2682.000000)">
            <g id="Specific" transform="translate(749.000000, 2682.000000)">
                <g id="Group-21">
                    <g id="Group-11" transform="translate(359.000000, 0.000000)" fill="#26CC6D" fill-opacity="0.2">
                        <rect id="Rectangle-19-Copy" x="15" y="0" width="221" height="27"></rect>
                        <rect id="Rectangle-19" x="0" y="38" width="208" height="11"></rect>
                    </g>
                    <g id="Group-20" transform="translate(0.000000, 129.000000)">
                        <polygon id="Path-11" fill-opacity="0.75" fill="#218052" points="70.2985075 96 567 96 400.654014 15.2630291 342.903306 37.9720415 181.711869 0 100.505716 48 70.2985075 30.9280423 0 96"></polygon>
                        <polygon id="Triangle-5-Copy" fill-opacity="0.2" fill="#26CC6D" transform="translate(77.876240, 62.751856) scale(-1, 1) translate(-77.876240, -62.751856) " points="84.4633907 39.630066 134.402701 85.8736461 21.3497798 85.8736461"></polygon>
                    </g>
                </g>
                <g id="Group-13" transform="translate(171.344262, 18.000000)">
                    <polygon id="Fill-5" fill="#F7C73C" points="42.2441927 175.706053 313.713314 175.706053 313.713314 11.934344 42.2441927 11.934344"></polygon>
                    <polygon id="Fill-7" fill="#FAAF3A" points="313.713119 11.934149 313.713119 175.705858 42.2439975 175.705858"></polygon>
                    <path d="M44.5427715,171.876553 L309.939819,171.876553 L309.939819,14.7195528 L44.5427715,14.7195528 L44.5427715,171.876553 Z M305.414879,0.0286484413 L49.0716159,0.0286484413 C40.0061199,0.0286484413 32.6640701,6.808416 32.6640701,15.1367493 L32.6640701,171.462606 C32.6640701,179.814983 40.0061199,186.594751 49.0716159,186.594751 L305.414879,186.594751 C314.488182,186.594751 321.818521,179.814983 321.818521,171.462606 L321.818521,15.1367493 C321.818521,6.808416 314.488182,0.0286484413 305.414879,0.0286484413 Z" id="Fill-8" fill="#465561"></path>
                    <polygon id="Fill-9" fill="#F1F1F1" points="316.103953 175.271506 205.014217 175.271506 149.471627 175.271506 38.3786376 175.271506 0.139472354 223.830056 149.471627 223.830056 205.014217 223.830056 354.347022 223.830056"></polygon>
                    <path d="M354.347645,223.829796 L205.014413,223.829796 L149.471822,223.829796 L0.138601083,223.829796 C0.138601083,223.829796 -0.291031357,235.726394 26.5079386,235.726394 L148.615629,235.726394 L205.874509,235.726394 L327.986103,235.726394 C354.781169,235.726394 354.347645,223.829796 354.347645,223.829796" id="Fill-10" fill="#1F2532"></path>
                    <polygon id="Fill-11" fill="#465561" points="316.103953 175.271506 205.874314 175.271506 205.014217 175.271506 149.471627 175.271506 148.615434 175.271506 38.3786376 175.271506 0.139472354 223.830056 149.471627 223.830056 205.014217 223.830056 354.347022 223.830056"></polygon>
                    <polygon id="Fill-12" fill="#FFFFFF" points="44.9409403 171.876553 310.504542 171.876553 310.504542 14.7195528 44.9409403 14.7195528"></polygon>
                </g>
                <g id="Group-16" transform="translate(246.250000, 149.383133)">
                    <mask id="mask-2" fill="white">
                        <use xlink:href="#path-1"></use>
                    </mask>
                    <g id="Clip-15"></g>
                    <polygon id="Fill-14" fill="#F1F1F1" mask="url(#mask-2)" points="-2.89857203 10.4863461 72.507204 10.4863461 72.507204 -3.40193428 -2.89857203 -3.40193428"></polygon>
                </g>
                <g id="Group-19" transform="translate(246.250000, 134.869880)">
                    <mask id="mask-4" fill="white">
                        <use xlink:href="#path-3"></use>
                    </mask>
                    <g id="Clip-18"></g>
                    <polygon id="Fill-17" fill="#F1F1F1" mask="url(#mask-4)" points="-2.9012936 11.052988 208.563254 11.052988 208.563254 -2.83529244 -2.9012936 -2.83529244"></polygon>
                </g>
                <g id="Group-22" transform="translate(246.250000, 121.120482)">
                    <mask id="mask-6" fill="white">
                        <use xlink:href="#path-5"></use>
                    </mask>
                    <g id="Clip-21"></g>
                    <polygon id="Fill-20" fill="#F1F1F1" mask="url(#mask-6)" points="-2.9012936 10.9252158 208.563254 10.9252158 208.563254 -2.96306462 -2.9012936 -2.96306462"></polygon>
                </g>
                <g id="Group-25" transform="translate(246.250000, 107.371084)">
                    <mask id="mask-8" fill="white">
                        <use xlink:href="#path-7"></use>
                    </mask>
                    <g id="Clip-24"></g>
                    <polygon id="Fill-23" fill="#F1F1F1" mask="url(#mask-8)" points="-2.9012936 10.798138 208.563254 10.798138 208.563254 -3.09014239 -2.9012936 -3.09014239"></polygon>
                </g>
                <g id="Group-28" transform="translate(246.250000, 93.621687)">
                    <mask id="mask-10" fill="white">
                        <use xlink:href="#path-9"></use>
                    </mask>
                    <g id="Clip-27"></g>
                    <polygon id="Fill-26" fill="#F1F1F1" mask="url(#mask-10)" points="-2.9012936 10.6703658 208.563254 10.6703658 208.563254 -3.21791457 -2.9012936 -3.21791457"></polygon>
                </g>
                <g id="Group-31" transform="translate(246.250000, 79.872289)">
                    <mask id="mask-12" fill="white">
                        <use xlink:href="#path-11"></use>
                    </mask>
                    <g id="Clip-30"></g>
                    <polygon id="Fill-29" fill="#F1F1F1" mask="url(#mask-12)" points="-2.9012936 10.5439825 208.563254 10.5439825 208.563254 -3.34429792 -2.9012936 -3.34429792"></polygon>
                </g>
                <g id="Group-34" transform="translate(246.250000, 66.886747)">
                    <mask id="mask-14" fill="white">
                        <use xlink:href="#path-13"></use>
                    </mask>
                    <g id="Clip-33"></g>
                    <polygon id="Fill-32" fill="#F1F1F1" mask="url(#mask-14)" points="-2.9012936 10.3120482 208.563254 10.3120482 208.563254 -3.4373494 -2.9012936 -3.4373494"></polygon>
                </g>
                <path d="M250.262807,50.8457831 L295.741291,50.8457831 C297.535092,50.8457831 298.989754,52.3843407 298.989754,54.2831325 C298.989754,56.1819243 297.535092,57.7204819 295.741291,57.7204819 L250.262807,57.7204819 C248.468356,57.7204819 247.014344,56.1819243 247.014344,54.2831325 C247.014344,52.3843407 248.468356,50.8457831 250.262807,50.8457831" id="Fill-35" fill="#966C24"></path>
                <g id="Group-40" transform="translate(246.250000, 50.845783)">
                    <mask id="mask-16" fill="white">
                        <use xlink:href="#path-15"></use>
                    </mask>
                    <g id="Clip-38"></g>
                    <polygon id="Fill-37" fill="#966C24" mask="url(#mask-16)" points="-19.1809928 503.227952 224.984535 503.227952 224.984535 -54.9975904 -19.1809928 -54.9975904"></polygon>
                    <polygon id="Fill-39" fill="#10572F" mask="url(#mask-16)" points="-2.90329091 10.3120482 55.6964359 10.3120482 55.6964359 -3.4373494 -2.90329091 -3.4373494"></polygon>
                </g>
                <g id="Group-63" transform="translate(153.000000, 108.898795)">
                    <path d="M263.245361,63.8215606 L273.280255,63.8215606" id="Stroke-43" stroke="#FFFFFF" stroke-width="2"></path>
                    <path d="M298.537427,63.8215606 C298.537427,57.5766103 293.468582,52.5137167 287.216292,52.5137167 C280.963351,52.5137167 275.894506,57.5766103 275.894506,63.8215606 C275.894506,70.0671607 280.963351,75.1294045 287.216292,75.1294045 C293.468582,75.1294045 298.537427,70.0671607 298.537427,63.8215606" id="Fill-45" fill="#10572F"></path>
                    <path d="M287.216031,58.8100692 L287.216031,68.8331819" id="Stroke-47" stroke="#FFFFFF" stroke-width="2"></path>
                    <path d="M282.19865,63.8215606 L292.233543,63.8215606" id="Stroke-49" stroke="#FFFFFF" stroke-width="2"></path>
                    <path d="M94.4661759,226.092142 L15.4121099,226.092142 C7.14295136,226.092142 0.377985981,219.334469 0.377985981,211.075669 L0.377985981,15.1239452 C0.377985981,6.86449484 7.14295136,0.106821794 15.4121099,0.106821794 L94.4661759,0.106821794 C102.735334,0.106821794 109.5003,6.86449484 109.5003,15.1239452 L109.5003,211.075669 C109.5003,219.334469 102.735334,226.092142 94.4661759,226.092142" id="Fill-51" fill="#1F2532"></path>
                    <polygon id="Fill-53" fill="#F0EDE6" points="104.34525 27.1583088 5.53303534 27.1583088 5.53303534 140.317978 104.34525 42.3041003"></polygon>
                    <polygon id="Fill-55" fill="#EAE4DA" points="5.5331004 140.317848 5.5331004 199.189988 104.345315 199.189988 104.345315 42.3039703"></polygon>
                    <path d="M62.9118869,212.081229 C62.9118869,207.683121 59.3426812,204.117455 54.9387525,204.117455 C50.536125,204.117455 46.9656182,207.683121 46.9656182,212.081229 C46.9656182,216.479988 50.536125,220.045653 54.9387525,220.045653 C59.3426812,220.045653 62.9118869,216.479988 62.9118869,212.081229" id="Fill-57" fill="#465561"></path>
                    <path d="M63.6139521,15.402856 L46.2636831,15.402856 C45.8564059,15.402856 45.5232974,15.0694887 45.5232974,14.6626897 C45.5232974,14.2558906 45.8564059,13.923823 46.2636831,13.923823 L63.6139521,13.923823 C64.0212293,13.923823 64.3549884,14.2558906 64.3549884,14.6626897 C64.3549884,15.0694887 64.0212293,15.402856 63.6139521,15.402856" id="Fill-59" fill="#465561"></path>
                    <polygon id="Fill-61" fill="#FFFFFF" points="5.49738232 199.189923 104.389622 199.189923 104.389622 27.2185489 5.49738232 27.2185489"></polygon>
                </g>
                <g id="Group-66" transform="translate(169.815574, 221.185542)">
                    <mask id="mask-18" fill="white">
                        <use xlink:href="#path-17"></use>
                    </mask>
                    <g id="Clip-65"></g>
                    <polygon id="Fill-64" fill="#F1F1F1" mask="url(#mask-18)" points="-1.0443776 4.14697108 76.8384019 4.14697108 76.8384019 -0.83260241 -1.0443776 -0.83260241"></polygon>
                </g>
                <g id="Group-69" transform="translate(169.815574, 237.990361)">
                    <mask id="mask-20" fill="white">
                        <use xlink:href="#path-19"></use>
                    </mask>
                    <g id="Clip-68"></g>
                    <polygon id="Fill-67" fill="#F1F1F1" mask="url(#mask-20)" points="-1.04015789 4.20196867 26.5600841 4.20196867 26.5600841 -0.777604819 -1.04015789 -0.777604819"></polygon>
                </g>
                <g id="Group-72" transform="translate(169.815574, 229.587952)">
                    <mask id="mask-22" fill="white">
                        <use xlink:href="#path-21"></use>
                    </mask>
                    <g id="Clip-71"></g>
                    <polygon id="Fill-70" fill="#F1F1F1" mask="url(#mask-22)" points="-1.0443776 4.17446988 76.8384019 4.17446988 76.8384019 -0.805103614 -1.0443776 -0.805103614"></polygon>
                </g>
                <g id="Group-75" transform="translate(169.815574, 212.783133)">
                    <mask id="mask-24" fill="white">
                        <use xlink:href="#path-23"></use>
                    </mask>
                    <g id="Clip-74"></g>
                    <polygon id="Fill-73" fill="#F1F1F1" mask="url(#mask-24)" points="-1.0443776 4.11947229 76.8384019 4.11947229 76.8384019 -0.860101205 -1.0443776 -0.860101205"></polygon>
                </g>
                <g id="Group-78" transform="translate(169.815574, 203.616867)">
                    <mask id="mask-26" fill="white">
                        <use xlink:href="#path-25"></use>
                    </mask>
                    <g id="Clip-77"></g>
                    <polygon id="Fill-76" fill="#F1F1F1" mask="url(#mask-26)" points="-1.0443776 4.09120964 76.5989975 4.09120964 76.5989975 -0.8876 -1.0443776 -0.8876"></polygon>
                </g>
                <g id="Group-81" transform="translate(169.815574, 195.978313)">
                    <mask id="mask-28" fill="white">
                        <use xlink:href="#path-27"></use>
                    </mask>
                    <g id="Clip-80"></g>
                    <polygon id="Fill-79" fill="#F1F1F1" mask="url(#mask-28)" points="-1.0443776 4.06294699 76.5989975 4.06294699 76.5989975 -0.915862651 -1.0443776 -0.915862651"></polygon>
                </g>
                <g id="Group-84" transform="translate(169.815574, 188.339759)">
                    <mask id="mask-30" fill="white">
                        <use xlink:href="#path-29"></use>
                    </mask>
                    <g id="Clip-83"></g>
                    <polygon id="Fill-82" fill="#F1F1F1" mask="url(#mask-30)" points="-1.0443776 4.0010747 76.5989975 4.0010747 76.5989975 -0.97773494 -1.0443776 -0.97773494"></polygon>
                </g>
                <g id="Group-87" transform="translate(169.815574, 180.701205)">
                    <mask id="mask-32" fill="white">
                        <use xlink:href="#path-31"></use>
                    </mask>
                    <g id="Clip-86"></g>
                    <polygon id="Fill-85" fill="#F1F1F1" mask="url(#mask-32)" points="-1.0443776 3.9735759 76.5989975 3.9735759 76.5989975 -1.00523373 -1.0443776 -1.00523373"></polygon>
                </g>
                <g id="Group-90" transform="translate(169.815574, 171.534940)">
                    <mask id="mask-34" fill="white">
                        <use xlink:href="#path-33"></use>
                    </mask>
                    <g id="Clip-89"></g>
                    <polygon id="Fill-88" fill="#F1F1F1" mask="url(#mask-34)" points="-1.0443776 3.94607711 76.5989975 3.94607711 76.5989975 -1.03273253 -1.0443776 -1.03273253"></polygon>
                </g>
                <g id="Group-93" transform="translate(169.815574, 163.132530)">
                    <mask id="mask-36" fill="white">
                        <use xlink:href="#path-35"></use>
                    </mask>
                    <g id="Clip-92"></g>
                    <polygon id="Fill-91" fill="#F1F1F1" mask="url(#mask-36)" points="-1.0443776 3.91857831 76.5989975 3.91857831 76.5989975 -1.06099518 -1.0443776 -1.06099518"></polygon>
                </g>
                <path d="M171.487699,153.20241 L184.195329,153.20241 C184.696039,153.20241 185.102459,153.715006 185.102459,154.347841 C185.102459,154.980676 184.696039,155.493976 184.195329,155.493976 L171.487699,155.493976 C170.986338,155.493976 170.579918,154.980676 170.579918,154.347841 C170.579918,153.715006 170.986338,153.20241 171.487699,153.20241" id="Fill-94" fill="#966C24"></path>
                <g id="Group-99" transform="translate(169.815574, 152.438554)">
                    <mask id="mask-38" fill="white">
                        <use xlink:href="#path-37"></use>
                    </mask>
                    <g id="Clip-97"></g>
                    <polygon id="Fill-96" fill="#966C24" mask="url(#mask-38)" points="-5.14287375 146.36081 60.9567872 146.36081 60.9567872 -15.3547161 -5.14287375 -15.3547161"></polygon>
                    <polygon id="Fill-98" fill="#10572F" mask="url(#mask-38)" points="-0.736229686 3.56567711 15.1274364 3.56567711 15.1274364 -0.417981687 -0.736229686 -0.417981687"></polygon>
                </g>
                <g id="Group-106" transform="translate(227.141393, 248.684337)">
                    <path d="M19.0811297,9.41965434 C19.0811297,4.26692273 14.9016162,0.089423764 9.74558702,0.089423764 C4.58955784,0.089423764 0.409385423,4.26692273 0.409385423,9.41965434 C0.409385423,14.572386 4.58955784,18.7498849 9.74558702,18.7498849 C14.9016162,18.7498849 19.0811297,14.572386 19.0811297,9.41965434" id="Fill-100" fill="#10572F"></path>
                    <path d="M9.74558702,5.28476007 L9.74558702,13.554812" id="Stroke-102" stroke="#FFFFFF" stroke-width="2"></path>
                    <path d="M5.60804657,9.41965434 L13.883391,9.41965434" id="Stroke-104" stroke="#FFFFFF" stroke-width="2"></path>
                </g>
            </g>
        </g>
    </g>
</svg>