<svg id="site-logo" data-name="hca-design-system-logo" xmlns="http://www.w3.org/2000/svg" viewBox="0 0 549.25 58.89"><defs><style>.cls-1{fill:#0c2340;}.cls-2{fill:#0d2240;}</style></defs><title>hca-design-system-logo-horizontal</title><path class="cls-1" d="M230.73,333.47q0,11-5.75,16.58t-16.89,5.61H197.67V312.12h11.76q10.43,0,15.86,5.45T230.73,333.47Zm-3.31.12q0-9.35-4.75-14.07t-14-4.72h-8V353h7.21Q227.43,353,227.43,333.59Z" transform="translate(-37.09 -311.43)"/><path class="cls-1" d="M253.07,356.26q-7.06,0-11-4.35t-3.95-12.18q0-7.74,3.81-12.41a12.58,12.58,0,0,1,10.28-4.66,11.1,11.1,0,0,1,9,4q3.3,4,3.31,10.84v2.38H241.22q0.06,6.67,3.11,10.19t8.74,3.51a27.09,27.09,0,0,0,4.87-.39,29.55,29.55,0,0,0,5.32-1.67v2.68a23.73,23.73,0,0,1-5.06,1.62A28.13,28.13,0,0,1,253.07,356.26Zm-0.86-31a9.7,9.7,0,0,0-7.51,3.08q-2.83,3.08-3.31,8.89h20q0-5.63-2.44-8.8A8.06,8.06,0,0,0,252.21,325.28Z" transform="translate(-37.09 -311.43)"/><path class="cls-1" d="M293.55,347.23a7.69,7.69,0,0,1-3.31,6.69q-3.3,2.34-9.38,2.34-6.49,0-10.31-2v-3.19a22.74,22.74,0,0,0,10.31,2.44q4.8,0,7.28-1.59a4.84,4.84,0,0,0,2.49-4.24,5.17,5.17,0,0,0-2-4.11,21.8,21.8,0,0,0-6.51-3.28,37.24,37.24,0,0,1-6.82-3,9.42,9.42,0,0,1-3-2.86,7.18,7.18,0,0,1-1-3.89,6.64,6.64,0,0,1,3.05-5.75q3.05-2.11,8.53-2.11a25.55,25.55,0,0,1,9.95,2l-1.1,2.68a23.33,23.33,0,0,0-8.85-2,12.81,12.81,0,0,0-6.29,1.31,4,4,0,0,0-2.32,3.63,5,5,0,0,0,1.8,4.05q1.8,1.52,7,3.4a34.65,34.65,0,0,1,6.37,2.84,9.26,9.26,0,0,1,3,2.87A7,7,0,0,1,293.55,347.23Z" transform="translate(-37.09 -311.43)"/><path class="cls-1" d="M301.47,314.29q0-2.86,1.88-2.86a1.67,1.67,0,0,1,1.44.74,3.66,3.66,0,0,1,.52,2.11,3.75,3.75,0,0,1-.52,2.11,1.65,1.65,0,0,1-1.44.77Q301.47,317.18,301.47,314.29Zm3.37,41.37h-2.95V323.29h2.95v32.38Z" transform="translate(-37.09 -311.43)"/><path class="cls-1" d="M340.94,323.29v2.06l-6.7.42a11.44,11.44,0,0,1,2.68,7.33,9.89,9.89,0,0,1-3.11,7.58,11.75,11.75,0,0,1-8.35,2.9,18.16,18.16,0,0,1-3.1-.18,7.7,7.7,0,0,0-2.68,2.17,4.39,4.39,0,0,0-.92,2.65,2.45,2.45,0,0,0,1.18,2.26,8,8,0,0,0,3.95.71h5.66q5.27,0,8.07,2.13a7.42,7.42,0,0,1,2.8,6.3,9,9,0,0,1-4.16,7.91q-4.15,2.79-11.84,2.79-6.11,0-9.46-2.35a7.56,7.56,0,0,1-3.35-6.55,7.78,7.78,0,0,1,2.07-5.54,10.73,10.73,0,0,1,5.62-3,5.71,5.71,0,0,1-2.34-1.77,4.21,4.21,0,0,1-.88-2.64q0-3.25,4.14-5.72a9.23,9.23,0,0,1-4.41-3.65,10.41,10.41,0,0,1-1.58-5.7,10.25,10.25,0,0,1,3.08-7.79,11.58,11.58,0,0,1,8.33-2.93,15.35,15.35,0,0,1,4.94.63h10.37Zm-26.21,37.86q0,6.67,9.92,6.67,12.75,0,12.75-8.13a4.69,4.69,0,0,0-2-4.23q-2-1.31-6.46-1.31h-5.3Q314.73,354.14,314.73,361.14Zm2.47-27.76a7.47,7.47,0,0,0,2.28,5.82,10.2,10.2,0,0,0,12.3,0,7.84,7.84,0,0,0,2.16-6q0-4.14-2.22-6.21a8.75,8.75,0,0,0-6.21-2.07,8.23,8.23,0,0,0-6.09,2.22A8.35,8.35,0,0,0,317.2,333.38Z" transform="translate(-37.09 -311.43)"/><path class="cls-1" d="M370.16,355.66v-21q0-4.88-2.05-7.1t-6.37-2.22q-5.81,0-8.5,2.93t-2.7,9.52v17.87h-2.95V323.29h2.5l0.57,4.44h0.18q3.16-5.06,11.23-5.06,11,0,11,11.82v21.18h-2.92Z" transform="translate(-37.09 -311.43)"/><path class="cls-1" d="M424.19,344.43a10.45,10.45,0,0,1-4,8.64q-4,3.19-10.65,3.19-8,0-12.24-1.76v-3a31,31,0,0,0,12,2q5.36,0,8.5-2.46a7.8,7.8,0,0,0,3.14-6.45,7.44,7.44,0,0,0-1-4.1,9.51,9.51,0,0,0-3.4-3,41.87,41.87,0,0,0-6.91-2.89q-6.67-2.29-9.22-5a10.62,10.62,0,0,1,1.28-15.07,15.2,15.2,0,0,1,9.84-3.08A28.82,28.82,0,0,1,423,313.81l-1.1,2.62a26.9,26.9,0,0,0-10.37-2.26,12.15,12.15,0,0,0-7.68,2.23,7.3,7.3,0,0,0-2.86,6.08,8,8,0,0,0,.88,4,8.07,8.07,0,0,0,2.87,2.78,39.31,39.31,0,0,0,6.85,3,37,37,0,0,1,7.65,3.41,11,11,0,0,1,3.74,3.75A10.25,10.25,0,0,1,424.19,344.43Z" transform="translate(-37.09 -311.43)"/><path class="cls-1" d="M427.23,323.29h3l6.85,18.17q3.13,8.37,4,11.29h0.18q1.25-3.84,4.08-11.47l6.85-18h3L440.72,360.9a29.31,29.31,0,0,1-2.95,6.2,7.89,7.89,0,0,1-2.79,2.41,8.48,8.48,0,0,1-3.86.8,13.28,13.28,0,0,1-3.78-.63v-2.56a14,14,0,0,0,3.72.48,5,5,0,0,0,2.68-.71,6.69,6.69,0,0,0,2.1-2.22,29.21,29.21,0,0,0,2.17-4.77q1.24-3.26,1.59-4.24Z" transform="translate(-37.09 -311.43)"/><path class="cls-1" d="M480.72,347.23a7.69,7.69,0,0,1-3.31,6.69q-3.3,2.34-9.38,2.34-6.49,0-10.31-2v-3.19A22.74,22.74,0,0,0,468,353.52q4.8,0,7.28-1.59a4.84,4.84,0,0,0,2.49-4.24,5.17,5.17,0,0,0-2-4.11,21.8,21.8,0,0,0-6.51-3.28,37.24,37.24,0,0,1-6.82-3,9.42,9.42,0,0,1-3-2.86,7.18,7.18,0,0,1-1-3.89,6.64,6.64,0,0,1,3.05-5.75q3.05-2.11,8.53-2.11a25.55,25.55,0,0,1,9.95,2l-1.1,2.68a23.33,23.33,0,0,0-8.85-2,12.81,12.81,0,0,0-6.29,1.31,4,4,0,0,0-2.32,3.63,5,5,0,0,0,1.8,4.05q1.8,1.52,7,3.4a34.65,34.65,0,0,1,6.37,2.84,9.26,9.26,0,0,1,3,2.87A7,7,0,0,1,480.72,347.23Z" transform="translate(-37.09 -311.43)"/><path class="cls-1" d="M497.61,353.64a22.1,22.1,0,0,0,4.88-.48v2.38a15.62,15.62,0,0,1-4.94.71q-4.29,0-6.33-2.29t-2-7.21V325.85h-4.8v-1.73l4.8-1.34,1.49-7.33h1.52v7.83h9.5v2.56h-9.5v20.49q0,3.72,1.31,5.51A4.75,4.75,0,0,0,497.61,353.64Z" transform="translate(-37.09 -311.43)"/><path class="cls-1" d="M522.57,356.26q-7.06,0-11-4.35t-3.95-12.18q0-7.74,3.81-12.41a12.58,12.58,0,0,1,10.28-4.66,11.1,11.1,0,0,1,9,4q3.3,4,3.31,10.84v2.38H510.71q0.06,6.67,3.11,10.19t8.74,3.51a27.09,27.09,0,0,0,4.87-.39,29.55,29.55,0,0,0,5.32-1.67v2.68a23.73,23.73,0,0,1-5.06,1.62A28.13,28.13,0,0,1,522.57,356.26Zm-0.86-31a9.7,9.7,0,0,0-7.51,3.08q-2.83,3.08-3.31,8.89h20q0-5.63-2.44-8.8A8.06,8.06,0,0,0,521.71,325.28Z" transform="translate(-37.09 -311.43)"/><path class="cls-1" d="M583.42,355.66V334.43q0-4.74-1.85-6.91t-5.66-2.17q-5,0-7.36,2.74t-2.38,8.61v19h-3V333.53q0-8.19-7.51-8.19-5.09,0-7.42,3t-2.32,9.49v17.87H543V323.29h2.44l0.63,4.44h0.18A9.28,9.28,0,0,1,550,324a11.35,11.35,0,0,1,5.45-1.33q7.66,0,9.83,5.75h0.12a11,11,0,0,1,4.24-4.26,12.22,12.22,0,0,1,6.06-1.49q5.3,0,8,2.83t2.65,9v21.18h-2.92Z" transform="translate(-37.09 -311.43)"/><path class="cls-2" d="M167.51,315.62h0.62c0.62,0,.81-0.18.81-0.54s-0.15-.49-0.74-0.49h-0.69v1h0Zm0,1.87H167v-3.33h1.29a0.94,0.94,0,0,1,1.17.94,0.86,0.86,0,0,1-.87.91l0.94,1.47H169l-0.9-1.44h-0.58v1.44h0Zm0.62-4.08a2.42,2.42,0,1,0,2.36,2.42,2.34,2.34,0,0,0-2.36-2.42m0-.47a2.89,2.89,0,1,1-2.93,2.89,2.88,2.88,0,0,1,2.93-2.89" transform="translate(-37.09 -311.43)"/><path class="cls-2" d="M79.45,319.36v28.92c0,3.57,1.33,5.08,5,5.45a0.62,0.62,0,0,1,.61.67V355H67.41v-0.61a0.62,0.62,0,0,1,.61-0.67c3.93-.42,4.9-2.24,4.9-5.45V334.85a0.35,0.35,0,0,0-.36-0.36h-23a0.35,0.35,0,0,0-.36.36v13.43c0,3.21,1,5,4.9,5.45a0.62,0.62,0,0,1,.6.67V355H37.09v-0.61a0.62,0.62,0,0,1,.61-0.67c3.63-.36,5-1.88,5-5.45V319.36c0-3.21-.91-5-5-5.45a0.62,0.62,0,0,1-.61-0.67v-0.6H54.7v0.6a0.62,0.62,0,0,1-.6.67c-3.57.42-4.9,1.94-4.9,5.45v12.41a0.35,0.35,0,0,0,.36.36h23a0.35,0.35,0,0,0,.36-0.36V319.36c0-3.51-1.33-5-4.9-5.45a0.62,0.62,0,0,1-.61-0.67v-0.6H85v0.6a0.62,0.62,0,0,1-.61.67c-4.05.42-5,2.24-5,5.45" transform="translate(-37.09 -311.43)"/><path class="cls-2" d="M109.85,355.66c-12.28,0-22.87-6.9-22.87-21.18C87,321.17,95.69,312,109.85,312a81.66,81.66,0,0,1,16.34,1.94V324.5h-0.85a0.71,0.71,0,0,1-.67-0.48c-2.78-7.08-8.17-10.29-14.34-10.29-8.83,0-16,6.11-16,18.58,0,13.37,7.56,20.57,18.21,20.57,6.72,0,11.19-2.78,14-6.6a0.81,0.81,0,0,1,1.15-.24l0.6,0.36c-3.93,6.23-10.11,9.26-18.52,9.26" transform="translate(-37.09 -311.43)"/><path class="cls-2" d="M155.84,355v-0.61c0-.36.18-0.6,0.79-0.67,2.66-.18,3.51-1.27,3.51-2.9,0-1.39-.67-3-1.63-5.75l-2-5.81a0.71,0.71,0,0,0-.67-0.48H141a0.71,0.71,0,0,0-.67.48l-1.57,4.05c-0.79,2.12-1.94,5.14-1.94,7,0,2.36,1.21,3.15,4,3.39a0.62,0.62,0,0,1,.61.67V355H127.89v-0.61c0-.36.18-0.6,0.79-0.67,3.27-.3,4.05-2.24,8.35-12l11.86-29.59h3.63a0.79,0.79,0,0,1,.73.48l13.31,33.83c1.82,4.54,3.09,6.72,6.41,7.26a0.56,0.56,0,0,1,.54.6V355H155.84Zm-0.67-19.12-6.29-16.82a0.19,0.19,0,1,0-.36,0l-6.78,16.82a0.31,0.31,0,0,0,.3.48h12.83a0.31,0.31,0,0,0,.3-0.48" transform="translate(-37.09 -311.43)"/></svg>
